<svg xmlns="http://www.w3.org/2000/svg" viewBox="0 0 1024 1024" role="img" aria-label="Media Web Downloader icon">
  <defs>
    <linearGradient id="bg" x1="160" y1="96" x2="864" y2="928" gradientUnits="userSpaceOnUse">
      <stop offset="0" stop-color="#0f766e"/>
      <stop offset="0.46" stop-color="#0891b2"/>
      <stop offset="1" stop-color="#1e3a8a"/>
    </linearGradient>
    <linearGradient id="arrow" x1="512" y1="202" x2="512" y2="686" gradientUnits="userSpaceOnUse">
      <stop offset="0" stop-color="#f8fafc"/>
      <stop offset="1" stop-color="#bae6fd"/>
    </linearGradient>
    <linearGradient id="tray" x1="248" y1="664" x2="776" y2="824" gradientUnits="userSpaceOnUse">
      <stop offset="0" stop-color="#ecfeff"/>
      <stop offset="1" stop-color="#7dd3fc"/>
    </linearGradient>
    <filter id="shadow" x="-20%" y="-20%" width="140%" height="150%">
      <feDropShadow dx="0" dy="30" stdDeviation="32" flood-color="#0f172a" flood-opacity="0.28"/>
    </filter>
    <filter id="soft" x="-20%" y="-20%" width="140%" height="140%">
      <feDropShadow dx="0" dy="14" stdDeviation="18" flood-color="#164e63" flood-opacity="0.32"/>
    </filter>
  </defs>

  <rect x="80" y="80" width="864" height="864" rx="188" fill="url(#bg)"/>
  <circle cx="288" cy="234" r="120" fill="#ffffff" opacity="0.12"/>
  <circle cx="806" cy="756" r="150" fill="#22d3ee" opacity="0.14"/>

  <g filter="url(#shadow)">
    <path
      d="M462 206c0-25 20-45 45-45h30c25 0 45 20 45 45v274h94c34 0 51 41 27 65L548 700c-18 18-47 18-65 0L328 545c-24-24-7-65 27-65h107V206z"
      fill="url(#arrow)"/>
    <path
      d="M268 642c0-31 25-56 56-56h432c31 0 56 25 56 56v138c0 31-25 56-56 56H324c-31 0-56-25-56-56V642z"
      fill="url(#tray)"/>
    <path
      d="M326 666c0-16 13-29 29-29h352c16 0 29 13 29 29v24c0 16-13 29-29 29H355c-16 0-29-13-29-29v-24z"
      fill="#0f172a" opacity="0.16"/>
    <path
      d="M441 765c0-21 23-34 41-24l76 44c18 10 18 36 0 46l-76 44c-18 10-41-3-41-24v-86z"
      fill="#f59e0b" filter="url(#soft)"/>
    <circle cx="704" cy="790" r="25" fill="#0f766e" opacity="0.82"/>
    <circle cx="760" cy="790" r="25" fill="#0f766e" opacity="0.52"/>
  </g>

  <path
    d="M204 152h520c82 0 148 66 148 148v12"
    fill="none"
    stroke="#ffffff"
    stroke-width="28"
    stroke-linecap="round"
    opacity="0.16"/>
</svg>
